<svg xmlns="http://www.w3.org/2000/svg" viewBox="0 0 1200 2000" preserveAspectRatio="xMidYMid slice">
  <defs>
    <linearGradient id="s" x1="0" y1="0" x2="0" y2="1">
      <stop offset="0" stop-color="#ffd9b0"/><stop offset="0.45" stop-color="#f6b88e"/><stop offset="1" stop-color="#9c6f9e"/>
    </linearGradient>
  </defs>
  <rect width="1200" height="2000" fill="url(#s)"/>
  <circle cx="600" cy="640" r="150" fill="#fff0d2" opacity="0.92"/>
  <g fill="#5c4a63" opacity="0.7">
    <rect x="60" y="1180" width="120" height="820"/><rect x="220" y="1320" width="100" height="680"/>
    <rect x="360" y="1100" width="130" height="900"/><rect x="520" y="1280" width="90" height="720"/>
    <rect x="650" y="1180" width="120" height="820"/><rect x="810" y="1040" width="140" height="960"/>
    <rect x="990" y="1280" width="110" height="720"/>
  </g>
  <g fill="#34283c">
    <rect x="120" y="1380" width="120" height="620"/><rect x="290" y="1480" width="100" height="520"/>
    <rect x="440" y="1320" width="130" height="680"/><rect x="620" y="1440" width="110" height="560"/>
    <rect x="780" y="1300" width="140" height="700"/><rect x="970" y="1460" width="120" height="540"/>
  </g>
</svg>
