<svg xmlns="http://www.w3.org/2000/svg" viewBox="0 0 1200 2000" preserveAspectRatio="xMidYMid slice">
  <defs>
    <linearGradient id="s" x1="0" y1="0" x2="0" y2="1">
      <stop offset="0" stop-color="#070d22"/><stop offset="0.55" stop-color="#1a1c44"/><stop offset="1" stop-color="#3a2454"/>
    </linearGradient>
  </defs>
  <rect width="1200" height="2000" fill="url(#s)"/>
  <g fill="#ffffff"><circle cx="200" cy="240" r="2.5"/><circle cx="480" cy="180" r="2"/><circle cx="900" cy="280" r="2.5"/><circle cx="1080" cy="220" r="2"/><circle cx="640" cy="160" r="2"/></g>
  <circle cx="880" cy="420" r="96" fill="#eef1ff" opacity="0.92"/>
  <g fill="#10173a">
    <rect x="60" y="1180" width="120" height="820"/><rect x="220" y="1320" width="100" height="680"/>
    <rect x="360" y="1100" width="130" height="900"/><rect x="520" y="1280" width="90" height="720"/>
    <rect x="650" y="1180" width="120" height="820"/><rect x="810" y="1040" width="140" height="960"/>
    <rect x="990" y="1280" width="110" height="720"/>
  </g>
  <g fill="#ffd98a" opacity="0.85">
    <rect x="90" y="1240" width="22" height="30"/><rect x="130" y="1320" width="22" height="30"/>
    <rect x="400" y="1180" width="24" height="32"/><rect x="440" y="1300" width="24" height="32"/>
    <rect x="690" y="1260" width="22" height="30"/><rect x="850" y="1120" width="26" height="34"/>
    <rect x="900" y="1240" width="26" height="34"/><rect x="1030" y="1340" width="22" height="30"/>
  </g>
  <g fill="#05091c"><rect x="120" y="1380" width="120" height="620"/><rect x="440" y="1320" width="130" height="680"/><rect x="780" y="1300" width="140" height="700"/></g>
</svg>
