<svg xmlns="http://www.w3.org/2000/svg" viewBox="0 0 1200 2000" preserveAspectRatio="xMidYMid slice">
  <defs>
    <linearGradient id="sky" x1="0" y1="0" x2="0" y2="1">
      <stop offset="0" stop-color="#0a1230"/><stop offset="0.6" stop-color="#172250"/><stop offset="1" stop-color="#243066"/>
    </linearGradient>
    <linearGradient id="sea" x1="0" y1="0" x2="0" y2="1">
      <stop offset="0" stop-color="#16335a"/><stop offset="1" stop-color="#081a30"/>
    </linearGradient>
  </defs>
  <rect width="1200" height="1180" fill="url(#sky)"/>
  <g fill="#ffffff"><circle cx="220" cy="240" r="2.5"/><circle cx="500" cy="180" r="2"/><circle cx="820" cy="300" r="2.5"/><circle cx="1040" cy="200" r="2"/><circle cx="340" cy="420" r="2"/><circle cx="700" cy="460" r="2"/></g>
  <circle cx="620" cy="520" r="110" fill="#eef1ff" opacity="0.95"/>
  <rect y="1140" width="1200" height="860" fill="url(#sea)"/>
  <rect x="560" y="1140" width="120" height="700" fill="#dfe6ff" opacity="0.22"/>
  <g fill="#bcd0ff" opacity="0.30">
    <path d="M0 1340 q150 -22 300 0 t300 0 t300 0 t300 0 V1380 H0 Z"/>
    <path d="M0 1560 q150 -22 300 0 t300 0 t300 0 t300 0 V1600 H0 Z" opacity="0.7"/>
  </g>
</svg>
